<svg width="140" height="27" viewBox="0 0 140 27" fill="none" xmlns="http://www.w3.org/2000/svg">
<g filter="url(#filter0_d_1_3)">
<path d="M21.3537 7.09091H16.6151C16.6491 6.6875 16.6264 6.32386 16.5469 6C16.4673 5.67614 16.331 5.39773 16.1378 5.16477C15.9446 4.92614 15.6918 4.74432 15.3793 4.61932C15.0668 4.49432 14.6946 4.43182 14.2628 4.43182C13.4332 4.43182 12.6918 4.6392 12.0384 5.05398C11.3849 5.46307 10.8423 6.05114 10.4105 6.81818C9.97869 7.57955 9.67188 8.48864 9.49006 9.54545C9.33097 10.5682 9.32528 11.4176 9.47301 12.0938C9.62642 12.7699 9.92472 13.2756 10.3679 13.6108C10.8168 13.946 11.3991 14.1136 12.1151 14.1136C12.5923 14.1136 13.0298 14.0568 13.4276 13.9432C13.831 13.8295 14.1889 13.6676 14.5014 13.4574C14.8196 13.2415 15.0895 12.9858 15.3111 12.6903C15.5384 12.3892 15.7116 12.0568 15.831 11.6932H20.6037C20.4219 12.4318 20.098 13.1875 19.6321 13.9602C19.1662 14.7273 18.5639 15.4347 17.8253 16.0824C17.0866 16.7244 16.2173 17.2443 15.2173 17.642C14.2173 18.0398 13.0923 18.2386 11.8423 18.2386C10.206 18.2386 8.79403 17.8807 7.60653 17.1648C6.42472 16.4489 5.56676 15.4034 5.03267 14.0284C4.50426 12.6534 4.39915 10.9773 4.71733 9C5.03551 7.09091 5.66335 5.49148 6.60085 4.2017C7.53835 2.91193 8.67756 1.94034 10.0185 1.28693C11.3594 0.633522 12.7855 0.306818 14.2969 0.306818C15.4389 0.306818 16.4616 0.457386 17.3651 0.758522C18.2741 1.05966 19.0384 1.5 19.6577 2.07954C20.2827 2.65341 20.7429 3.3608 21.0384 4.2017C21.3338 5.04261 21.4389 6.00568 21.3537 7.09091ZM29.3501 0.545454L26.4524 18H21.7138L24.6115 0.545454H29.3501ZM46.6982 0.545454L43.8004 18H39.8459L35.0732 8.82955H34.9709L33.4368 18H28.6982L31.5959 0.545454H35.6186L40.3232 9.68182H40.4595L41.9595 0.545454H46.6982ZM46.0419 18L48.9396 0.545454H61.5192L60.8714 4.36364H53.0305L52.5533 7.36364H59.7464L59.0987 11.1818H51.9055L51.4283 14.1818H59.2351L58.5874 18H46.0419ZM60.9716 18L63.8693 0.545454H71.4375C72.767 0.545454 73.8551 0.724432 74.7017 1.08239C75.554 1.44034 76.1562 1.94602 76.5085 2.59943C76.8665 3.25284 76.9716 4.02273 76.8239 4.90909C76.7102 5.54545 76.4659 6.12784 76.0909 6.65625C75.7216 7.17898 75.2528 7.62216 74.6847 7.9858C74.1222 8.34375 73.4943 8.59091 72.8011 8.72727L72.767 8.89773C73.517 8.92045 74.1705 9.10795 74.7273 9.46023C75.2841 9.80682 75.6932 10.2898 75.9545 10.9091C76.2159 11.5227 76.2784 12.2386 76.142 13.0568C75.983 14.0114 75.5938 14.8608 74.9744 15.6051C74.3551 16.3494 73.5511 16.9347 72.5625 17.3608C71.5739 17.7869 70.4489 18 69.1875 18H60.9716ZM66.358 14.2159H68.5739C69.358 14.2159 69.9744 14.0653 70.4233 13.7642C70.8778 13.4631 71.1477 13.0227 71.233 12.4432C71.3011 12.0341 71.267 11.6875 71.1307 11.4034C70.9943 11.1193 70.7642 10.9034 70.4403 10.7557C70.1165 10.608 69.7102 10.5341 69.2216 10.5341H66.9375L66.358 14.2159ZM67.4489 7.60227H69.392C69.8011 7.60227 70.1761 7.53693 70.517 7.40625C70.858 7.27557 71.1392 7.08523 71.3608 6.83523C71.5824 6.58523 71.7216 6.28409 71.7784 5.93182C71.8636 5.38636 71.733 4.97159 71.3864 4.6875C71.0455 4.40341 70.5852 4.26136 70.0057 4.26136H67.9943L67.4489 7.60227ZM84.6392 0.545454L81.7415 18H77.0028L79.9006 0.545454H84.6392ZM101.987 0.545454L99.0895 18H95.1349L90.3622 8.82955H90.2599L88.7259 18H83.9872L86.8849 0.545454H90.9077L95.6122 9.68182H95.7486L97.2486 0.545454H101.987ZM114.609 6.30682C114.587 6.00568 114.524 5.74148 114.422 5.5142C114.32 5.28125 114.175 5.08523 113.987 4.92614C113.8 4.76136 113.567 4.6392 113.288 4.55966C113.016 4.47443 112.695 4.43182 112.325 4.43182C111.53 4.43182 110.805 4.62216 110.152 5.00284C109.499 5.38352 108.95 5.93182 108.507 6.64773C108.07 7.36364 107.768 8.22727 107.604 9.23864C107.433 10.2614 107.419 11.1364 107.561 11.8636C107.703 12.5909 108.01 13.1477 108.482 13.5341C108.959 13.9205 109.604 14.1136 110.416 14.1136C111.143 14.1136 111.771 14.0085 112.3 13.7983C112.828 13.5881 113.251 13.2898 113.57 12.9034C113.888 12.517 114.087 12.0625 114.166 11.5398L114.984 11.625H110.996L111.541 8.25H119.28L118.888 10.6705C118.626 12.2614 118.064 13.6222 117.2 14.7528C116.342 15.8778 115.274 16.7415 113.996 17.3438C112.717 17.9403 111.314 18.2386 109.786 18.2386C108.092 18.2386 106.663 17.8778 105.499 17.1562C104.334 16.4347 103.501 15.4062 103.001 14.071C102.507 12.7358 102.411 11.1477 102.712 9.30682C102.95 7.86364 103.382 6.58523 104.007 5.47159C104.638 4.35795 105.408 3.41761 106.317 2.65057C107.226 1.87784 108.229 1.29545 109.325 0.903408C110.422 0.505681 111.558 0.306818 112.734 0.306818C113.763 0.306818 114.697 0.454545 115.538 0.75C116.379 1.03977 117.098 1.45454 117.695 1.99432C118.291 2.52841 118.737 3.16193 119.033 3.89489C119.334 4.62784 119.456 5.43182 119.399 6.30682H114.609ZM119.87 18L122.768 0.545454H135.347L134.7 4.36364H126.859L126.381 7.36364H133.575L132.927 11.1818H125.734L125.256 14.1818H133.063L132.415 18H119.87Z" fill="url(#paint0_radial_1_3)"/>
</g>
<defs>
<filter id="filter0_d_1_3" x="0.240059" y="0.306816" width="139.107" height="25.9318" filterUnits="userSpaceOnUse" color-interpolation-filters="sRGB">
<feFlood flood-opacity="0" result="BackgroundImageFix"/>
<feColorMatrix in="SourceAlpha" type="matrix" values="0 0 0 0 0 0 0 0 0 0 0 0 0 0 0 0 0 0 127 0" result="hardAlpha"/>
<feOffset dy="4"/>
<feGaussianBlur stdDeviation="2"/>
<feComposite in2="hardAlpha" operator="out"/>
<feColorMatrix type="matrix" values="0 0 0 0 0 0 0 0 0 0 0 0 0 0 0 0 0 0 0.25 0"/>
<feBlend mode="normal" in2="BackgroundImageFix" result="effect1_dropShadow_1_3"/>
<feBlend mode="normal" in="SourceGraphic" in2="effect1_dropShadow_1_3" result="shape"/>
</filter>
<radialGradient id="paint0_radial_1_3" cx="0" cy="0" r="1" gradientUnits="userSpaceOnUse" gradientTransform="translate(16 10) scale(111 13.263)">
<stop offset="0.0001" stop-color="#AD1D1D"/>
<stop offset="0.0002" stop-color="#9E7B7B"/>
<stop offset="0.36131" stop-color="#A72121"/>
<stop offset="0.894939" stop-color="#E8DEDE"/>
</radialGradient>
</defs>
</svg>
